# xmcd
#
# Track frame offsets:
#	180
#	17504
#	34658
#	48262
#	59365
#	74199
#	89238
#	103329
#	122543
#	135904
#	148682
#
# Disc length: 2502 seconds
#
# Revision: 1
# Processed by: cddbd v1.4PL0 Copyright (c) Steve Scherf et al.
# Submitted via: audiograbber 1.80.04
#
DISCID=a009c40b
DTITLE=Climax Chicago Blues Band - Climax Chicago Blues Band
DYEAR=1968
DGENRE=Blues
TTITLE0=Mean Old World
TTITLE1=Insurance
TTITLE2=Going Down This Road
TTITLE3=You've Been Drinking
TTITLE4=Don't Start Me Talkin'
TTITLE5=Wee Baby Blues
TTITLE6=Twenty Past One
TTITLE7=A Stranger In Your Town
TTITLE8=How Many More Years
TTITLE9=Looking For My Baby
TTITLE10=And Lonely
EXTD=
EXTT0=
EXTT1=
EXTT2=
EXTT3=
EXTT4=
EXTT5=
EXTT6=
EXTT7=
EXTT8=
EXTT9=
EXTT10=
PLAYORDER=
